<svg width="710" height="100" version="1.1" xmlns="http://www.w3.org/2000/svg"><defs><filter id="a" x="-.02" y="-.3" width="1.04" height="1.6"><feGaussianBlur stdDeviation="3"/></filter></defs>
<path d="m19 69h-6.4l5.2-27h-8.3l1.1-5.6h23l-1.1 5.6h-8.2zm39-18q-1-.93-2.3-1.4-1.3-.46-2.9-.46-3.6 0-5.6 1.9-1.9 1.9-2.8 6.4l-2.2 11h-6.4l4.8-24h6.4l-.76 3.8q1.3-2.1 3.5-3.2 2.1-1.2 4.7-1.2 1.3 0 2.5.33t2.2.91zm16 6.2q-3.7 0-5.5 1.1t-1.8 3.5q0 1.4.87 2.3.89.89 2.3.89 2.6 0 4.3-2t2.4-5.8zm9.2-2.4-2.7 14h-6.3l.54-2.7q-1.5 1.7-3.3 2.5-1.9.82-4.3.82-3.3 0-5.2-1.9t-1.9-5.1q0-4.7 3.4-7.1 3.4-2.5 9.7-2.5h4.2l.17-1.1q.022-.13.022-.24.022-.13.022-.39 0-1.2-1.1-1.9-1.1-.65-3.2-.65-1.8 0-4 .63-2.2.61-4.8 1.8l1-5.4q2.5-.85 4.6-1.3 2.2-.43 4.2-.43 4.7 0 7.1 1.6t2.4 4.8q0 .85-.15 2t-.43 2.5zm27-1.9-3.1 16h-6.4l2.9-15q.11-.56.15-1.1.065-.59.065-1.2 0-1.3-.63-1.9-.63-.67-1.8-.67-1.8 0-3.1 1.6t-1.8 4.5l-2.6 14h-6.4l4.7-24h6.4l-.69 3.6q1-2 2.9-3.1 1.8-1.1 4-1.1 2.8 0 4.3 1.5t1.5 4.3q0 .65-.11 1.5-.087.82-.28 1.8zm24 15q-1.7.72-3.5 1.1-1.8.37-3.6.37-4.9 0-7.7-2.7t-2.8-7.4q0-6.9 4-11 4-4.3 10-4.3 2.1 0 4 .46 1.8.43 3.5 1.4l-1.2 5.8q-1.3-1.3-2.8-1.9t-3.2-.61q-3.7 0-6 2.7t-2.3 7q0 2.8 1.3 4.1t4 1.4q1.5 0 3.2-.56t3.7-1.7zm8.1-24h5.2l-.72 19 4.9-12h5l.48 12 6.3-19h5.5l-9.1 24h-6.1l-.41-13-5.2 13h-6.1zm43 9.5q0-2.4-1-3.6-1-1.3-2.8-1.3-2.7 0-4.5 3t-1.8 7.4q0 2.3 1 3.6 1.1 1.3 2.9 1.3 2.6 0 4.4-3t1.8-7.4zm-17 5.6q0-7 3.6-11 3.6-4.4 9.4-4.4 4.7 0 7.3 2.6t2.6 7.2q0 7-3.6 11-3.6 4.3-9.4 4.3-4.7 0-7.3-2.6t-2.6-7.3zm38 1.3q-.087.43-.15.8-.043.35-.043.46 0 .98.67 1.4.67.39 2.4.39h6l-.98 4.9h-6.4q-4.4 0-6.3-1.2t-1.8-4q0-.5.11-1.3t.3-1.7l4.4-21h-6.6l.93-4.9h13zm40-16-12 24h-8l-3-24h6.1l1.7 19 8.4-19zm22 23q-2.1.91-4.3 1.4t-4.6.46q-5.4 0-8.2-2.6t-2.8-7.5q0-3.1.95-5.9t2.7-5q1.8-2.2 4.3-3.4t5.4-1.2q4.5 0 7.3 2.6t2.7 6.9q0 .98-.15 2.3-.13 1.3-.43 3.1h-16q-.065.37-.11.69-.022.33-.043.65 0 2.1 1.5 3.3 1.5 1.1 4.3 1.1 2.3 0 4.7-.67 2.3-.67 4.4-2zm-2.5-14q.087-.3.11-.59.043-.3.043-.56 0-1.8-1.1-2.9t-3-1.1q-2.2 0-3.7 1.3t-2.4 3.8zm24-18v12h-5.6v-12zm34 8.9-1.1 5.5q-1.6-1.2-3.5-1.7-1.9-.59-3.9-.59t-3.2.76-1.2 2q0 .98.78 1.6.8.59 3.6 1.4l1.6.46q2.8.8 4.1 2.3t1.3 4q0 4-3 6.2t-8.3 2.2q-2.3 0-4.5-.39-2.2-.37-4.4-1.1l1.1-5.6q1.9 1.2 3.9 1.9 2.1.63 4.1.63 2.4 0 3.7-.8 1.3-.82 1.3-2.3 0-1-.67-1.6-.65-.56-3.5-1.4l-1.9-.52q-2.6-.78-3.9-2.3-1.2-1.5-1.2-4 0-3.6 3-5.9t7.9-2.3q2 0 4 .35 2 .33 4 1zm32-.76h5.2l-.72 19 4.9-12h5l.48 12 6.3-19h5.5l-9.1 24h-6.1l-.41-13-5.2 13h-6.1zm46 23q-2.1.91-4.3 1.4t-4.6.46q-5.4 0-8.2-2.6t-2.8-7.5q0-3.1.95-5.9t2.7-5q1.8-2.2 4.3-3.4t5.4-1.2q4.5 0 7.3 2.6t2.7 6.9q0 .98-.15 2.3-.13 1.3-.43 3.1h-16q-.065.37-.11.69-.022.33-.043.65 0 2.1 1.5 3.3 1.5 1.1 4.3 1.1 2.3 0 4.7-.67t4.4-2zm-2.5-14q.087-.3.11-.59.043-.3.043-.56 0-1.8-1.1-2.9t-3-1.1q-2.2 0-3.7 1.3t-2.4 3.8zm21 10q2.4 0 4.1-3.1t1.7-7.5q0-2.2-.91-3.4-.89-1.2-2.5-1.2-2.5 0-4.3 3t-1.8 7.3q0 2.3.98 3.6t2.6 1.3zm-4.8.043-.89 4.5h-6.4l6.6-34h6.4l-2.6 13q1.4-2.1 3.2-3.1 1.8-1.1 3.9-1.1 3.2 0 5 2.4 1.9 2.4 1.9 6.5 0 2.8-.67 5.7-.65 2.8-1.8 5.1-1.5 2.8-3.8 4.4t-4.8 1.6q-2.4 0-4-1.3-1.6-1.4-1.9-3.8zm42-19-1.1 5.5q-1.6-1.2-3.5-1.7-1.9-.59-3.9-.59t-3.2.76-1.2 2q0 .98.78 1.6.8.59 3.6 1.4l1.6.46q2.8.8 4.1 2.3t1.3 4q0 4-3 6.2t-8.3 2.2q-2.3 0-4.5-.39-2.2-.37-4.4-1.1l1.1-5.6q1.9 1.2 3.9 1.9 2.1.63 4.1.63 2.4 0 3.7-.8 1.3-.82 1.3-2.3 0-1-.67-1.6-.65-.56-3.5-1.4l-1.9-.52q-2.6-.78-3.9-2.3-1.2-1.5-1.2-4 0-3.6 3-5.9t7.9-2.3q2 0 4 .35 2 .33 4 1zm9.7-.76h13l-3.8 19h7.9l-.93 4.9h-22l.93-4.9h7.9l2.8-15h-6.2zm8.5-12h6.4l-1.5 7.4h-6.4zm30 4.9-1.3 6.9h8.3l-.93 4.9h-8.3l-2.3 12q-.087.43-.13.76t-.043.5q0 .98.65 1.4.65.39 2.4.39h4.9l-.93 4.9h-5.3q-4.4 0-6.3-1.2-1.8-1.2-1.8-4 0-.46.087-1.2.11-.74.3-1.8l2.2-11h-6.2l.93-4.9h6.2l1.3-6.9zm30 30q-2.1.91-4.3 1.4t-4.6.46q-5.4 0-8.2-2.6t-2.8-7.5q0-3.1.95-5.9t2.7-5q1.8-2.2 4.3-3.4t5.4-1.2q4.5 0 7.3 2.6t2.7 6.9q0 .98-.15 2.3-.13 1.3-.43 3.1h-16q-.065.37-.11.69-.022.33-.043.65 0 2.1 1.5 3.3 1.5 1.1 4.3 1.1 2.3 0 4.7-.67t4.4-2zm-2.5-14q.087-.3.11-.59.043-.3.043-.56 0-1.8-1.1-2.9t-3-1.1q-2.2 0-3.7 1.3t-2.4 3.8zm53-16-1.3 6.9h8.3l-.93 4.9h-8.3l-2.3 12q-.087.43-.13.76t-.043.5q0 .98.65 1.4.65.39 2.4.39h4.9l-.93 4.9h-5.3q-4.4 0-6.3-1.2-1.8-1.2-1.8-4 0-.46.087-1.2.11-.74.3-1.8l2.2-11h-6.2l.93-4.9h6.2l1.3-6.9zm32 15-3.1 16h-6.4l2.9-15q.11-.56.15-1.1.065-.59.065-1.2 0-1.3-.63-1.9-.63-.67-1.8-.67-1.8 0-3.1 1.6-1.3 1.5-1.8 4.5l-2.6 14h-6.4l6.6-34h6.3l-2.5 13q1-2 2.9-3.1 1.8-1.1 4-1.1 2.8 0 4.3 1.5t1.5 4.3q0 .65-.11 1.5-.087.82-.28 1.8zm9.5-8.5h13l-3.8 19h7.9l-.93 4.9h-22l.93-4.9h7.9l2.8-15h-6.2zm8.5-12h6.4l-1.5 7.4h-6.4zm35 20-3.1 16h-6.4l2.9-15q.11-.56.15-1.1.065-.59.065-1.2 0-1.3-.63-1.9-.63-.67-1.8-.67-1.8 0-3.1 1.6t-1.8 4.5l-2.6 14h-6.4l4.7-24h6.4l-.69 3.6q1-2 2.9-3.1 1.8-1.1 4-1.1 2.8 0 4.3 1.5t1.5 4.3q0 .65-.11 1.5-.087.82-.28 1.8zm14 10q2.5 0 4.3-2.9t1.8-6.9q0-2.2-.89-3.4t-2.5-1.2q-2.5 0-4.3 2.9t-1.8 6.9q0 2.2.87 3.4t2.5 1.2zm10 3.5q-1.2 6-4.1 8.5-3 2.5-8.9 2.5-2.1 0-4.1-.33t-3.9-.95l1.2-5.8q1.6.98 3.4 1.5 1.8.5 3.7.5 2.7 0 4.2-1.3t2-4l.59-2.9q-1.2 1.8-2.9 2.7-1.7.91-3.8.91-3.4 0-5.4-2.3t-2-6.1q0-3 .91-6.1t2.5-5.4q1.5-2.2 3.7-3.5t4.5-1.3 3.7 1.2q1.5 1.2 1.9 3.4l.76-4h6.4z" filter="url(#a)" stroke="#00f" stroke-width="7"/>
<path d="m19 69h-6.4l5.2-27h-8.3l1.1-5.6h23l-1.1 5.6h-8.2zm39-18q-1-.93-2.3-1.4-1.3-.46-2.9-.46-3.6 0-5.6 1.9-1.9 1.9-2.8 6.4l-2.2 11h-6.4l4.8-24h6.4l-.76 3.8q1.3-2.1 3.5-3.2 2.1-1.2 4.7-1.2 1.3 0 2.5.33t2.2.91zm16 6.2q-3.7 0-5.5 1.1t-1.8 3.5q0 1.4.87 2.3.89.89 2.3.89 2.6 0 4.3-2t2.4-5.8zm9.2-2.4-2.7 14h-6.3l.54-2.7q-1.5 1.7-3.3 2.5-1.9.82-4.3.82-3.3 0-5.2-1.9t-1.9-5.1q0-4.7 3.4-7.1 3.4-2.5 9.7-2.5h4.2l.17-1.1q.022-.13.022-.24.022-.13.022-.39 0-1.2-1.1-1.9-1.1-.65-3.2-.65-1.8 0-4 .63-2.2.61-4.8 1.8l1-5.4q2.5-.85 4.6-1.3 2.2-.43 4.2-.43 4.7 0 7.1 1.6t2.4 4.8q0 .85-.15 2t-.43 2.5zm27-1.9-3.1 16h-6.4l2.9-15q.11-.56.15-1.1.065-.59.065-1.2 0-1.3-.63-1.9-.63-.67-1.8-.67-1.8 0-3.1 1.6t-1.8 4.5l-2.6 14h-6.4l4.7-24h6.4l-.69 3.6q1-2 2.9-3.1 1.8-1.1 4-1.1 2.8 0 4.3 1.5t1.5 4.3q0 .65-.11 1.5-.087.82-.28 1.8zm24 15q-1.7.72-3.5 1.1-1.8.37-3.6.37-4.9 0-7.7-2.7t-2.8-7.4q0-6.9 4-11 4-4.3 10-4.3 2.1 0 4 .46 1.8.43 3.5 1.4l-1.2 5.8q-1.3-1.3-2.8-1.9t-3.2-.61q-3.7 0-6 2.7t-2.3 7q0 2.8 1.3 4.1t4 1.4q1.5 0 3.2-.56t3.7-1.7zm8.1-24h5.2l-.72 19 4.9-12h5l.48 12 6.3-19h5.5l-9.1 24h-6.1l-.41-13-5.2 13h-6.1zm43 9.5q0-2.4-1-3.6-1-1.3-2.8-1.3-2.7 0-4.5 3t-1.8 7.4q0 2.3 1 3.6 1.1 1.3 2.9 1.3 2.6 0 4.4-3t1.8-7.4zm-17 5.6q0-7 3.6-11 3.6-4.4 9.4-4.4 4.7 0 7.3 2.6t2.6 7.2q0 7-3.6 11-3.6 4.3-9.4 4.3-4.7 0-7.3-2.6t-2.6-7.3zm38 1.3q-.087.43-.15.8-.043.35-.043.46 0 .98.67 1.4.67.39 2.4.39h6l-.98 4.9h-6.4q-4.4 0-6.3-1.2t-1.8-4q0-.5.11-1.3t.3-1.7l4.4-21h-6.6l.93-4.9h13zm40-16-12 24h-8l-3-24h6.1l1.7 19 8.4-19zm22 23q-2.1.91-4.3 1.4t-4.6.46q-5.4 0-8.2-2.6t-2.8-7.5q0-3.1.95-5.9t2.7-5q1.8-2.2 4.3-3.4t5.4-1.2q4.5 0 7.3 2.6t2.7 6.9q0 .98-.15 2.3-.13 1.3-.43 3.1h-16q-.065.37-.11.69-.022.33-.043.65 0 2.1 1.5 3.3 1.5 1.1 4.3 1.1 2.3 0 4.7-.67 2.3-.67 4.4-2zm-2.5-14q.087-.3.11-.59.043-.3.043-.56 0-1.8-1.1-2.9t-3-1.1q-2.2 0-3.7 1.3t-2.4 3.8zm24-18v12h-5.6v-12zm34 8.9-1.1 5.5q-1.6-1.2-3.5-1.7-1.9-.59-3.9-.59t-3.2.76-1.2 2q0 .98.78 1.6.8.59 3.6 1.4l1.6.46q2.8.8 4.1 2.3t1.3 4q0 4-3 6.2t-8.3 2.2q-2.3 0-4.5-.39-2.2-.37-4.4-1.1l1.1-5.6q1.9 1.2 3.9 1.9 2.1.63 4.1.63 2.4 0 3.7-.8 1.3-.82 1.3-2.3 0-1-.67-1.6-.65-.56-3.5-1.4l-1.9-.52q-2.6-.78-3.9-2.3-1.2-1.5-1.2-4 0-3.6 3-5.9t7.9-2.3q2 0 4 .35 2 .33 4 1zm32-.76h5.2l-.72 19 4.9-12h5l.48 12 6.3-19h5.5l-9.1 24h-6.1l-.41-13-5.2 13h-6.1zm46 23q-2.1.91-4.3 1.4t-4.6.46q-5.4 0-8.2-2.6t-2.8-7.5q0-3.1.95-5.9t2.7-5q1.8-2.2 4.3-3.4t5.4-1.2q4.5 0 7.3 2.6t2.7 6.9q0 .98-.15 2.3-.13 1.3-.43 3.1h-16q-.065.37-.11.69-.022.33-.043.65 0 2.1 1.5 3.3 1.5 1.1 4.3 1.1 2.3 0 4.7-.67t4.4-2zm-2.5-14q.087-.3.11-.59.043-.3.043-.56 0-1.8-1.1-2.9t-3-1.1q-2.2 0-3.7 1.3t-2.4 3.8zm21 10q2.4 0 4.1-3.1t1.7-7.5q0-2.2-.91-3.4-.89-1.2-2.5-1.2-2.5 0-4.3 3t-1.8 7.3q0 2.3.98 3.6t2.6 1.3zm-4.8.043-.89 4.5h-6.4l6.6-34h6.4l-2.6 13q1.4-2.1 3.2-3.1 1.8-1.1 3.9-1.1 3.2 0 5 2.4 1.9 2.4 1.9 6.5 0 2.8-.67 5.7-.65 2.8-1.8 5.1-1.5 2.8-3.8 4.4t-4.8 1.6q-2.4 0-4-1.3-1.6-1.4-1.9-3.8zm42-19-1.1 5.5q-1.6-1.2-3.5-1.7-1.9-.59-3.9-.59t-3.2.76-1.2 2q0 .98.78 1.6.8.59 3.6 1.4l1.6.46q2.8.8 4.1 2.3t1.3 4q0 4-3 6.2t-8.3 2.2q-2.3 0-4.5-.39-2.2-.37-4.4-1.1l1.1-5.6q1.9 1.2 3.9 1.9 2.1.63 4.1.63 2.4 0 3.7-.8 1.3-.82 1.3-2.3 0-1-.67-1.6-.65-.56-3.5-1.4l-1.9-.52q-2.6-.78-3.9-2.3-1.2-1.5-1.2-4 0-3.6 3-5.9t7.9-2.3q2 0 4 .35 2 .33 4 1zm9.7-.76h13l-3.8 19h7.9l-.93 4.9h-22l.93-4.9h7.9l2.8-15h-6.2zm8.5-12h6.4l-1.5 7.4h-6.4zm30 4.9-1.3 6.9h8.3l-.93 4.9h-8.3l-2.3 12q-.087.43-.13.76t-.043.5q0 .98.65 1.4.65.39 2.4.39h4.9l-.93 4.9h-5.3q-4.4 0-6.3-1.2-1.8-1.2-1.8-4 0-.46.087-1.2.11-.74.3-1.8l2.2-11h-6.2l.93-4.9h6.2l1.3-6.9zm30 30q-2.1.91-4.3 1.4t-4.6.46q-5.4 0-8.2-2.6t-2.8-7.5q0-3.1.95-5.9t2.7-5q1.8-2.2 4.3-3.4t5.4-1.2q4.5 0 7.3 2.6t2.7 6.9q0 .98-.15 2.3-.13 1.3-.43 3.1h-16q-.065.37-.11.69-.022.33-.043.65 0 2.1 1.5 3.3 1.5 1.1 4.3 1.1 2.3 0 4.7-.67t4.4-2zm-2.5-14q.087-.3.11-.59.043-.3.043-.56 0-1.8-1.1-2.9t-3-1.1q-2.2 0-3.7 1.3t-2.4 3.8zm53-16-1.3 6.9h8.3l-.93 4.9h-8.3l-2.3 12q-.087.43-.13.76t-.043.5q0 .98.65 1.4.65.39 2.4.39h4.9l-.93 4.9h-5.3q-4.4 0-6.3-1.2-1.8-1.2-1.8-4 0-.46.087-1.2.11-.74.3-1.8l2.2-11h-6.2l.93-4.9h6.2l1.3-6.9zm32 15-3.1 16h-6.4l2.9-15q.11-.56.15-1.1.065-.59.065-1.2 0-1.3-.63-1.9-.63-.67-1.8-.67-1.8 0-3.1 1.6-1.3 1.5-1.8 4.5l-2.6 14h-6.4l6.6-34h6.3l-2.5 13q1-2 2.9-3.1 1.8-1.1 4-1.1 2.8 0 4.3 1.5t1.5 4.3q0 .65-.11 1.5-.087.82-.28 1.8zm9.5-8.5h13l-3.8 19h7.9l-.93 4.9h-22l.93-4.9h7.9l2.8-15h-6.2zm8.5-12h6.4l-1.5 7.4h-6.4zm35 20-3.1 16h-6.4l2.9-15q.11-.56.15-1.1.065-.59.065-1.2 0-1.3-.63-1.9-.63-.67-1.8-.67-1.8 0-3.1 1.6t-1.8 4.5l-2.6 14h-6.4l4.7-24h6.4l-.69 3.6q1-2 2.9-3.1 1.8-1.1 4-1.1 2.8 0 4.3 1.5t1.5 4.3q0 .65-.11 1.5-.087.82-.28 1.8zm14 10q2.5 0 4.3-2.9t1.8-6.9q0-2.2-.89-3.4t-2.5-1.2q-2.5 0-4.3 2.9t-1.8 6.9q0 2.2.87 3.4t2.5 1.2zm10 3.5q-1.2 6-4.1 8.5-3 2.5-8.9 2.5-2.1 0-4.1-.33t-3.9-.95l1.2-5.8q1.6.98 3.4 1.5 1.8.5 3.7.5 2.7 0 4.2-1.3t2-4l.59-2.9q-1.2 1.8-2.9 2.7-1.7.91-3.8.91-3.4 0-5.4-2.3t-2-6.1q0-3 .91-6.1t2.5-5.4q1.5-2.2 3.7-3.5t4.5-1.3 3.7 1.2q1.5 1.2 1.9 3.4l.76-4h6.4z" stroke="#0ff"/></svg>
