<svg width="700" height="100" version="1.1" xmlns="http://www.w3.org/2000/svg">
<defs><filter id="a" width="1.2" height="1.3"><feGaussianBlur stdDeviation="2"/></filter></defs>
<g stroke="#00f" stroke-width="5" filter="url(#a)">
<path id="text" transform="translate(350,68)"
d="m -331.0957,0 h -6.31641 l 5.13477,-26.533203 h -8.22852 l 1.05274,-5.542969 h 22.75195 l -1.0957,5.542969 h -8.14258 z m 38.43554,-17.509766 q -1.03125,-0.923828 -2.29882,-1.353515 -1.26758,-0.451172 -2.85743,-0.451172 -3.5664,0 -5.5,1.890625 -1.91211,1.890625 -2.77148,6.33789 L -308.23633,0 h -6.33789 l 4.70508,-24.0625 h 6.29492 l -0.75195,3.738281 q 1.33203,-2.0625 3.45898,-3.179687 2.12696,-1.138672 4.6836,-1.138672 1.33203,0 2.51367,0.322266 1.20312,0.322265 2.14844,0.902343 z m 16.0918,6.123047 q -3.69531,0 -5.47851,1.117188 -1.78321,1.1171872 -1.78321,3.4589841 0,1.3535157 0.85938,2.234375 0.88086,0.8808594 2.23437,0.8808594 2.53516,0 4.25391,-1.9980469 1.71875,-1.9980468 2.3418,-5.6933596 z m 9.10938,-2.341797 L -270.10156,0 h -6.25196 l 0.53711,-2.6855469 q -1.43945,1.6542969 -3.30859,2.49218753 -1.84766,0.81640624 -4.21094,0.81640624 -3.24414,0 -5.15625,-1.86914057 -1.89062,-1.8906251 -1.89062,-5.0917969 0,-4.6191404 3.33008,-7.0468754 3.35156,-2.449218 9.64648,-2.449218 h 4.14648 l 0.17188,-1.052735 q 0.0215,-0.128906 0.0215,-0.236328 0.0215,-0.128906 0.0215,-0.386719 0,-1.224609 -1.0957,-1.86914 -1.09571,-0.644531 -3.17969,-0.644531 -1.76172,0 -3.9961,0.623046 -2.21289,0.601563 -4.74804,1.804688 l 1.00976,-5.371094 q 2.42774,-0.83789 4.57617,-1.246094 2.16993,-0.429687 4.125,-0.429687 4.66211,0 7.06836,1.632812 2.40625,1.632813 2.40625,4.791016 0,0.837891 -0.15039,1.976563 -0.15039,1.138671 -0.42968,2.513671 z m 26.23242,-1.912109 L -244.25586,0 h -6.29492 l 2.85742,-14.652344 q 0.10742,-0.558594 0.15039,-1.117187 0.0644,-0.580078 0.0644,-1.160156 0,-1.246094 -0.62304,-1.890625 -0.62305,-0.666016 -1.80469,-0.666016 -1.76172,0 -3.0293,1.546875 -1.24609,1.546875 -1.80468,4.425781 L -257.33984,0 h -6.29493 l 4.66211,-24.0625 h 6.29493 l -0.6875,3.609375 q 1.03125,-1.976562 2.83593,-3.072266 1.80469,-1.117187 3.97461,-1.117187 2.75,0 4.23242,1.503906 1.48243,1.482422 1.48243,4.210938 0,0.644531 -0.10743,1.460937 -0.0859,0.816406 -0.27929,1.826172 z m 23.35351,14.84570313 q -1.65429,0.70898437 -3.41601,1.05273437 -1.74024,0.36523437 -3.52344,0.36523437 -4.85547,0 -7.62695,-2.66406247 -2.75,-2.6640625 -2.75,-7.2832032 0,-6.8105472 3.93164,-11.0644532 3.95312,-4.253906 10.3125,-4.253906 2.10547,0 3.93164,0.451172 1.82617,0.429687 3.45898,1.353515 l -1.13867,5.757813 q -1.31055,-1.246094 -2.77148,-1.847656 -1.46094,-0.601563 -3.13672,-0.601563 -3.65235,0 -5.95117,2.664063 -2.27735,2.664062 -2.27735,6.9179684 0,2.75 1.31055,4.1035156 1.31055,1.3535156 3.97461,1.3535156 1.5039,0 3.20117,-0.5585937 1.71875,-0.5585938 3.67383,-1.6757813 z M -209.85937,-24.0625 h 5.15625 l -0.70899,18.4335938 4.87695,-12.1386718 h 4.94141 l 0.47266,12.1386718 6.25195,-18.4335938 h 5.41406 L -192.43555,0 h -6.01562 l -0.4082,-12.675781 L -203.99414,0 h -5.99414 z m 42.68945,9.367187 q 0,-2.341796 -1.00977,-3.609374 -0.98828,-1.267579 -2.81445,-1.267579 -2.64258,0 -4.42578,2.921875 -1.7832,2.921875 -1.7832,7.3261722 0,2.2773438 1.03125,3.5878907 1.05273,1.2890625 2.83593,1.2890625 2.59961,0 4.38282,-2.921875 1.7832,-2.9433594 1.7832,-7.3261724 z m -16.3711,5.5429692 q 0,-6.9179682 3.56641,-11.2148432 3.58789,-4.31836 9.32422,-4.31836 4.61914,0 7.21875,2.59961 2.59961,2.578125 2.59961,7.175781 0,6.9394529 -3.58789,11.2363279 -3.56641,4.29687497 -9.30274,4.29687497 -4.61914,0 -7.21875,-2.57812497 -2.59961,-2.5996094 -2.59961,-7.1972657 z m 38.02735,1.3105469 q -0.0859,0.4296875 -0.15039,0.7949219 -0.043,0.34375 -0.043,0.4511719 0,0.9667969 0.66601,1.375 0.66602,0.3867187 2.3418,0.3867187 h 5.97266 L -137.69336,0 h -6.38086 q -4.4043,0 -6.23047,-1.203125 -1.82617,-1.203125 -1.82617,-3.9960937 0,-0.4941407 0.10742,-1.2460938 0.10742,-0.7519531 0.30078,-1.6972656 l 4.36133,-20.4531249 h -6.57422 l 0.92383,-4.833984 h 12.84766 z M -106.00391,-24.0625 -117.8418,0 h -7.92773 l -2.98633,-24.0625 h 6.08008 l 1.71875,18.8632813 8.35742,-18.8632813 z m 21.376957,22.8808594 q -2.041016,0.90234372 -4.253906,1.3535156 -2.212891,0.45117187 -4.576172,0.45117187 -5.328125,0 -8.099609,-2.53515627 -2.77149,-2.5566406 -2.77149,-7.4550781 0,-3.0292965 0.94532,-5.8652345 0.94531,-2.835937 2.66406,-4.919922 1.804688,-2.191406 4.296875,-3.351562 2.492188,-1.181641 5.371094,-1.181641 4.490234,0 7.197265,2.578125 2.707032,2.578125 2.707032,6.832031 0,0.966797 -0.150391,2.234375 -0.128906,1.267578 -0.429687,3.0507816 h -16.306641 q -0.06445,0.3652344 -0.107422,0.6875 -0.02148,0.3222656 -0.04297,0.6445313 0,2.1269531 1.439453,3.2226562 1.439454,1.0742188 4.253907,1.0742188 2.320312,0 4.640625,-0.6660156 2.320312,-0.6660157 4.318359,-1.9335938 z m -2.513672,-13.5136724 q 0.08594,-0.300781 0.107422,-0.580078 0.04297,-0.300781 0.04297,-0.558593 0,-1.826172 -1.095703,-2.878907 -1.095704,-1.052734 -3.007813,-1.052734 -2.148437,0 -3.673828,1.267578 -1.525391,1.267578 -2.384766,3.802734 z m 23.632813,-17.380859 v 11.923828 h -5.5 v -11.923828 z m 34.03125,8.765625 -1.074219,5.457031 q -1.611328,-1.138671 -3.480469,-1.71875 -1.869141,-0.580078 -3.867187,-0.580078 -2.019532,0 -3.201172,0.751953 -1.181641,0.751954 -1.181641,2.019532 0,0.966797 0.773438,1.568359 0.794921,0.580078 3.566406,1.375 l 1.589844,0.451172 q 2.75,0.794922 4.017578,2.298828 1.267578,1.503906 1.267578,3.953125 0,3.9101562 -2.964844,6.1445313 -2.943359,2.21289057 -8.207031,2.21289057 -2.234375,0 -4.46875,-0.38671874 -2.212891,-0.36523438 -4.339844,-1.11718751 l 1.095703,-5.50000002 q 1.847656,1.203125 3.888672,1.8476563 2.041016,0.6230468 4.039063,0.6230468 2.363281,0 3.673828,-0.7949218 1.332031,-0.8164063 1.332031,-2.2558594 0,-0.9882812 -0.666016,-1.546875 -0.644531,-0.5585938 -3.501953,-1.3964844 l -1.890625,-0.5156251 q -2.621094,-0.773437 -3.845703,-2.255859 -1.224609,-1.503907 -1.224609,-3.910156 0,-3.609375 2.921875,-5.822266 2.921875,-2.234375 7.777343,-2.234375 1.998047,0 3.996094,0.34375 1.998047,0.322266 3.97461,0.988281 z M 2.0625,-24.0625 H 7.21875 L 6.5097656,-5.6289062 11.386719,-17.767578 h 4.941406 L 16.800781,-5.6289062 23.052734,-24.0625 h 5.414063 L 19.486328,0 H 13.470703 L 13.0625,-12.675781 7.9277344,0 H 1.9335937 Z m 45.761719,22.8808594 q -2.041016,0.90234372 -4.253907,1.3535156 -2.21289,0.45117187 -4.576171,0.45117187 -5.328125,0 -8.09961,-2.53515627 -2.771484,-2.5566406 -2.771484,-7.4550781 0,-3.0292965 0.945312,-5.8652345 0.945313,-2.835937 2.664063,-4.919922 1.804687,-2.191406 4.296875,-3.351562 2.492187,-1.181641 5.371094,-1.181641 4.490234,0 7.197265,2.578125 2.707031,2.578125 2.707031,6.832031 0,0.966797 -0.15039,2.234375 -0.128906,1.267578 -0.429688,3.0507816 h -16.30664 q -0.06445,0.3652344 -0.107422,0.6875 -0.02148,0.3222656 -0.04297,0.6445313 0,2.1269531 1.439453,3.2226562 1.439453,1.0742188 4.253906,1.0742188 2.320313,0 4.640625,-0.6660156 2.320313,-0.6660157 4.31836,-1.9335938 z M 45.310547,-14.695313 q 0.08594,-0.300781 0.107422,-0.580078 0.04297,-0.300781 0.04297,-0.558593 0,-1.826172 -1.095703,-2.878907 -1.095703,-1.052734 -3.007812,-1.052734 -2.148438,0 -3.673828,1.267578 -1.525391,1.267578 -2.384766,3.802734 z m 20.560547,10.2050786 q 2.384765,0 4.082031,-3.0292968 1.71875,-3.0507818 1.71875,-7.3906248 0,-2.169922 -0.902344,-3.373047 -0.880859,-1.203125 -2.470703,-1.203125 -2.449219,0 -4.232422,2.986328 -1.761719,2.964844 -1.761719,7.21875 0,2.234375 0.966797,3.5234375 0.966797,1.2675781 2.59961,1.2675781 z M 61.166016,-4.4472656 60.285156,0 H 53.990234 L 60.5,-33.429687 h 6.294922 l -2.556641,12.976562 q 1.353516,-2.0625 3.136719,-3.115234 1.783203,-1.074219 3.824219,-1.074219 3.136718,0 4.96289,2.363281 1.847657,2.341797 1.847657,6.402344 0,2.814453 -0.666016,5.607422 -0.644531,2.7714841 -1.826172,5.0273435 -1.482422,2.7714844 -3.738281,4.31835937 -2.25586,1.546875 -4.769531,1.546875 -2.384766,0 -3.931641,-1.33203124 Q 61.53125,-2.0625 61.166016,-4.4472656 Z m 41.808594,-18.8632814 -1.07422,5.457031 q -1.61133,-1.138671 -3.480468,-1.71875 -1.869141,-0.580078 -3.867188,-0.580078 -2.019531,0 -3.201172,0.751953 -1.18164,0.751954 -1.18164,2.019532 0,0.966797 0.773437,1.568359 0.794922,0.580078 3.566407,1.375 l 1.589843,0.451172 q 2.75,0.794922 4.017581,2.298828 1.26758,1.503906 1.26758,3.953125 0,3.9101562 -2.964848,6.1445313 -2.94336,2.21289057 -8.207031,2.21289057 -2.234375,0 -4.46875,-0.38671874 -2.212891,-0.36523438 -4.339844,-1.11718751 L 82.5,-6.3808594 q 1.847656,1.203125 3.888672,1.8476563 2.041015,0.6230468 4.039062,0.6230468 2.363282,0 3.673828,-0.7949218 1.332032,-0.8164063 1.332032,-2.2558594 0,-0.9882812 -0.666016,-1.546875 -0.644531,-0.5585938 -3.501953,-1.3964844 L 89.375,-10.419922 q -2.621094,-0.773437 -3.845703,-2.255859 -1.22461,-1.503907 -1.22461,-3.910156 0,-3.609375 2.921875,-5.822266 2.921875,-2.234375 7.777344,-2.234375 1.998047,0 3.996094,0.34375 1.99805,0.322266 3.97461,0.988281 z m 9.625,-0.751953 h 12.46094 l -3.73828,19.2285156 h 7.82031 L 128.21875,0 h -21.95703 l 0.92383,-4.8339844 h 7.84179 l 2.81446,-14.3945316 h -6.16602 z m 8.44336,-11.708984 h 6.29492 l -1.43945,7.347656 h -6.29492 z m 29.62695,4.876953 -1.33203,6.832031 h 8.22852 l -0.92383,4.833984 h -8.22852 l -2.23437,11.3867191 q -0.0859,0.4296875 -0.12891,0.7519532 -0.043,0.3222656 -0.043,0.4941406 0,0.9667969 0.64453,1.375 0.64453,0.3867187 2.3418,0.3867187 h 4.83398 L 152.9043,0 h -5.26368 q -4.38281,0 -6.23046,-1.1816406 -1.82618,-1.203125 -1.82618,-3.9746094 0,-0.4511719 0.0859,-1.1816406 0.10742,-0.7304688 0.30078,-1.8046875 l 2.16992,-11.0859379 h -6.16601 l 0.92383,-4.833984 h 6.16601 l 1.31055,-6.832031 z m 29.60547,29.7128904 q -2.04102,0.90234372 -4.25391,1.3535156 -2.21289,0.45117187 -4.57617,0.45117187 -5.32812,0 -8.09961,-2.53515627 -2.77148,-2.5566406 -2.77148,-7.4550781 0,-3.0292965 0.94531,-5.8652345 0.94531,-2.835937 2.66406,-4.919922 1.80469,-2.191406 4.29688,-3.351562 2.49219,-1.181641 5.37109,-1.181641 4.49024,0 7.19727,2.578125 2.70703,2.578125 2.70703,6.832031 0,0.966797 -0.15039,2.234375 -0.12891,1.267578 -0.42969,3.0507816 h -16.30664 q -0.0644,0.3652344 -0.10742,0.6875 -0.0215,0.3222656 -0.043,0.6445313 0,2.1269531 1.43945,3.2226562 1.43946,1.0742188 4.25391,1.0742188 2.32031,0 4.64062,-0.6660156 2.32032,-0.6660157 4.31836,-1.9335938 z m -2.51367,-13.5136724 q 0.0859,-0.300781 0.10742,-0.580078 0.043,-0.300781 0.043,-0.558593 0,-1.826172 -1.0957,-2.878907 -1.09571,-1.052734 -3.00782,-1.052734 -2.14843,0 -3.67382,1.267578 -1.5254,1.267578 -2.38477,3.802734 z m 52.3789,-16.199218 -1.33203,6.832031 h 8.22852 l -0.92383,4.833984 h -8.22851 l -2.23438,11.3867191 q -0.0859,0.4296875 -0.12891,0.7519532 -0.043,0.3222656 -0.043,0.4941406 0,0.9667969 0.64453,1.375 0.64453,0.3867187 2.34179,0.3867187 h 4.83399 L 232.375,0 h -5.26367 q -4.38281,0 -6.23047,-1.1816406 -1.82617,-1.203125 -1.82617,-3.9746094 0,-0.4511719 0.0859,-1.1816406 0.10743,-0.7304688 0.30079,-1.8046875 l 2.16992,-11.0859379 h -6.16602 l 0.92383,-4.833984 h 6.16602 l 1.31054,-6.832031 z M 262.08789,-15.640625 259.05859,0 h -6.29492 l 2.85742,-14.652344 q 0.10743,-0.558594 0.15039,-1.117187 0.0645,-0.580078 0.0645,-1.160156 0,-1.246094 -0.62305,-1.890625 -0.62305,-0.666016 -1.80469,-0.666016 -1.7832,0 -3.02929,1.546875 -1.2461,1.525391 -1.80469,4.425781 L 245.97461,0 h -6.29492 l 6.50976,-33.429687 h 6.25196 l -2.49219,12.976562 q 1.03125,-1.976562 2.83594,-3.072266 1.80468,-1.117187 3.97461,-1.117187 2.75,0 4.23242,1.503906 1.48242,1.482422 1.48242,4.210938 0,0.644531 -0.10742,1.460937 -0.0859,0.816406 -0.2793,1.826172 z m 9.45313,-8.421875 h 12.46093 l -3.73828,19.2285156 h 7.82031 L 287.16016,0 h -21.95704 l 0.92383,-4.8339844 h 7.8418 l 2.81445,-14.3945316 h -6.16601 z m 8.44335,-11.708984 h 6.29493 l -1.43946,7.347656 h -6.29492 z M 315.06836,-15.640625 312.03906,0 h -6.29492 l 2.85742,-14.652344 q 0.10742,-0.558594 0.15039,-1.117187 0.0645,-0.580078 0.0645,-1.160156 0,-1.246094 -0.62305,-1.890625 -0.62305,-0.666016 -1.80469,-0.666016 -1.76172,0 -3.0293,1.546875 -1.24609,1.546875 -1.80468,4.425781 L 298.95508,0 h -6.29492 l 4.66211,-24.0625 h 6.29492 l -0.6875,3.609375 q 1.03125,-1.976562 2.83593,-3.072266 1.80469,-1.117187 3.97461,-1.117187 2.75,0 4.23243,1.503906 1.48242,1.482422 1.48242,4.210938 0,0.644531 -0.10742,1.460937 -0.0859,0.816406 -0.2793,1.826172 z m 13.98633,10.3554688 q 2.4707,0 4.27539,-2.8359376 1.80469,-2.8574222 1.80469,-6.8750002 0,-2.148437 -0.88086,-3.330078 -0.88086,-1.203125 -2.42774,-1.203125 -2.44922,0 -4.2539,2.857422 -1.80469,2.835937 -1.80469,6.8105469 0,2.1914062 0.85937,3.3945312 0.85938,1.1816407 2.42774,1.1816407 z m 10.0332,3.4804687 q -1.13867,5.9511719 -4.10352,8.421875 -2.96484,2.4921875 -8.83007,2.4921875 -2.10547,0 -4.06055,-0.3222656 -1.95508,-0.3222656 -3.82422,-0.9453125 l 1.16016,-5.6933594 q 1.61133,0.9667969 3.37304,1.4394531 1.78321,0.4941406 3.65235,0.4941406 2.68554,0 4.18945,-1.2675781 1.52539,-1.2460937 2.01953,-3.9101562 l 0.58008,-2.8574219 q -1.16016,1.7832031 -2.83594,2.7070313 -1.65429,0.9023437 -3.71679,0.9023437 -3.37305,0 -5.3711,-2.234375 -1.97656,-2.2558594 -1.97656,-6.0800781 0,-2.9863279 0.90234,-6.0156249 0.90235,-3.029297 2.47071,-5.349609 1.5039,-2.212891 3.65234,-3.458985 2.16992,-1.246094 4.44727,-1.246094 2.23437,0 3.67382,1.181641 1.46094,1.181641 1.91211,3.394531 l 0.75196,-3.910156 h 6.29492 z" />
</g>
<use href="#text" stroke="#0ff" fill="#00a"/>
</svg>
